REM DIRINDEX 1\2,1\3,1\4
REM DIRNAME cjc032,folder01,folder02,folder03
TITLE ""
FILE "Disk2Track30.mp3" MP3
  TRACK 01 AUDIO
    TITLE "4:cjc032_0852"
    INDEX 01 00:00:00
  TRACK 02 AUDIO
    TITLE "4:cjc032_0853"
    INDEX 01 00:04:52
  TRACK 03 AUDIO
    TITLE "4:cjc032_0854"
    INDEX 01 00:19:62
  TRACK 04 AUDIO
    TITLE "4:cjc032_0855"
    INDEX 01 00:42:04
  TRACK 05 AUDIO
    TITLE "0:"
    INDEX 01 01:00:29
